<?xml version="1.0" encoding="UTF-8"?>
<svg xmlns="http://www.w3.org/2000/svg" xmlns:xlink="http://www.w3.org/1999/xlink" width="256" height="256" viewBox="0 0 256 256">
<path fill-rule="nonzero" fill="rgb(100%, 40%, 0%)" fill-opacity="1" d="M 128 0 C 57.316406 0 0 57.316406 0 127.996094 C 0 142.125 2.289062 155.714844 6.519531 168.425781 L 44.800781 168.425781 L 44.800781 60.734375 L 128 143.933594 L 211.199219 60.734375 L 211.199219 168.425781 L 249.480469 168.425781 C 253.710938 155.714844 256 142.125 256 127.996094 C 256 57.316406 198.679688 0 128 0 "/>
<path fill-rule="nonzero" fill="rgb(29.803922%, 29.803922%, 29.803922%)" fill-opacity="1" d="M 108.867188 163.0625 L 72.558594 126.75 L 72.558594 194.515625 L 18.625 194.515625 C 41.09375 231.378906 81.675781 255.996094 127.996094 255.996094 C 174.316406 255.996094 214.902344 231.378906 237.371094 194.515625 L 183.4375 194.515625 L 183.4375 126.75 L 127.996094 182.191406 L 108.871094 163.0625 Z M 108.867188 163.0625 "/>
</svg>
